<?xml version="1.0" encoding="iso-8859-1"?>
<!-- Generator: Adobe Illustrator 19.0.0, SVG Export Plug-In . SVG Version: 6.00 Build 0)  -->
<svg version="1.1" id="Capa_1" xmlns="http://www.w3.org/2000/svg" xmlns:xlink="http://www.w3.org/1999/xlink" x="0px" y="0px"
	 viewBox="0 0 511.995 511.995" style="enable-background:new 0 0 511.995 511.995;" xml:space="preserve">
<path style="fill:#FFBE26;" d="M417.722,222.255v-72.494c0-4.205-0.244-8.354-0.69-12.444l70.596,37.37
	c7.407,3.921,7.407,10.337,0,14.258l-69.953,37.03C417.697,224.737,417.722,223.499,417.722,222.255z"/>
<path style="fill:#F99A25;" d="M417.722,149.762v72.494c0,1.244-0.025,2.482-0.047,3.72l21.172-11.208v-65.006
	c0-0.302-0.013-0.602-0.016-0.904l-21.8-11.54C417.478,141.407,417.722,145.556,417.722,149.762z"/>
<path style="fill:#FFE44C;" d="M266.519,4.635c-12.811,0.845,10.381,23.426,5.295,35.215l0,0
	c-40.136,13.37-69.087,51.212-69.087,95.841l0,0c0,49.008-39.729,88.737-88.737,88.737H27.995c-5.277,0-9.423,4.437-9.172,9.708
	c5.075,106.251,93.009,190.79,200.603,190.418c110.607-0.382,199.42-91.692,199.42-202.298v-72.494
	c0-42.945-23.537-80.369-58.399-100.148l0.023-0.016C360.47,49.597,330.701,0.401,266.519,4.635z"/>
<g>
	<path style="fill:#FFC200;" d="M222.728,135.69L222.728,135.69c0-44.629,28.951-82.471,69.087-95.841
		c4.853-11.251-16.022-32.315-6.807-34.952c-5.813-0.565-11.971-0.694-18.489-0.264c-12.812,0.845,10.381,23.426,5.295,35.215
		c-40.136,13.37-69.087,51.212-69.087,95.841l0,0c0,49.008-39.729,88.737-88.737,88.737h20.001
		C182.999,224.427,222.728,184.699,222.728,135.69z"/>
	<path style="fill:#FFC200;" d="M38.823,234.136c-0.252-5.272,3.894-9.708,9.172-9.708H27.995c-5.277,0-9.423,4.437-9.172,9.708
		c5.075,106.251,93.009,190.79,200.603,190.418c3.096-0.011,6.172-0.103,9.233-0.255C126.022,419.216,43.728,336.82,38.823,234.136z
		"/>
</g>
<circle style="fill:#696B70;" cx="342.265" cy="145.287" r="26.97"/>
<path style="fill:#5C5F63;" d="M335.299,145.284c0-11.361,7.027-21.074,16.97-25.047c-3.093-1.236-6.466-1.923-10.001-1.923
	c-14.896,0-26.97,12.075-26.97,26.97c0,14.896,12.075,26.97,26.97,26.97c3.534,0,6.907-0.687,10.001-1.923
	C342.327,166.357,335.299,156.644,335.299,145.284z"/>
<path d="M298.547,292.497c-24.647,35.315-64.754,56.487-107.285,56.635c-0.165,0.001-0.329,0.001-0.493,0.001
	c-13.284,0-26.352-1.844-38.881-5.49l28.251-23.273c2.544-2.096,3.415-5.604,2.157-8.65s-4.354-4.916-7.644-4.604
	c-0.506,0.048-50.859,4.345-96.778-30.196c-3.311-2.492-8.013-1.825-10.503,1.484c-2.49,3.311-1.825,8.013,1.484,10.503
	c31.882,23.982,65.13,31.001,86.011,32.848l-12.626,10.401c-4.279,3.525-6.245,9.09-5.131,14.523
	c1.113,5.43,5.108,9.77,10.429,11.325c13.92,4.07,28.459,6.133,43.23,6.133c0.181,0,0.364,0,0.545-0.001
	c47.41-0.165,92.097-23.734,119.535-63.051c2.37-3.396,1.539-8.071-1.858-10.443C305.596,288.268,300.919,289.099,298.547,292.497z"
	/>
<path d="M342.269,182.883c19.007,0,34.471-15.463,34.471-34.471s-15.464-34.471-34.471-34.471
	c-19.008,0-34.472,15.463-34.472,34.471S323.261,182.883,342.269,182.883z M342.269,128.943c10.736,0,19.47,8.734,19.47,19.47
	s-8.733,19.47-19.47,19.47s-19.471-8.734-19.471-19.47S331.533,128.943,342.269,128.943z"/>
<path d="M491.26,171.21l-66.15-35.546c-5.23-36.632-26.913-69.435-59.297-88.484c-6.15-9.122-37.869-50.984-99.789-46.9
	c-5.791,0.382-8.438,3.534-9.502,5.378c-5.414,9.398,6.26,21.421,8.398,31.824c-16.873,6.468-31.916,17.093-43.733,30.934
	c-12.997,15.22-21.509,33.671-24.619,53.36c-0.646,4.092,2.146,7.932,6.238,8.579c4.103,0.649,7.932-2.147,8.578-6.238
	c5.461-34.574,29.523-62.937,62.799-74.022c2.027-0.675,3.67-2.183,4.517-4.145c4.446-10.307-3.152-22.345-7.101-30.913
	c22.691-0.572,43.187,5.882,60.941,19.225c12.821,9.635,19.873,19.839,21.259,21.951c0.658,1.261,1.672,2.328,2.947,3.052
	c30.992,17.584,51.042,49.28,54.154,84.018c0.09,1,0.166,1.926,0.246,3.262c0.055,0.924,0.128,2.572,0.145,3.138
	c0.093,3.091,0.074,75.716,0.009,79.299c-1.906,105.397-87.251,190.837-191.901,191.198c-0.233,0.001-0.452,0.001-0.685,0.001
	c-103.029,0-187.487-80.38-192.402-183.274c-0.032-0.687,0.293-1.135,0.49-1.341c0.222-0.233,0.608-0.511,1.19-0.511h85.995
	c22.063,0,43.619-7.655,60.7-21.558c16.833-13.7,28.654-32.857,33.288-53.942c0.889-4.045-1.67-8.046-5.716-8.935
	c-4.045-0.887-8.046,1.67-8.935,5.716c-8.112,36.92-41.479,63.717-79.337,63.717H27.994c-4.597,0-8.874,1.832-12.048,5.159
	c-3.151,3.306-4.835,7.827-4.616,12.407c2.553,53.449,25.344,103.262,64.174,140.265c31.336,29.861,70.531,48.859,112.687,55.062
	v64.049h-10.042c-4.143,0-7.5,3.357-7.5,7.5s3.357,7.5,7.5,7.5h116.303c4.143,0,7.5-3.357,7.5-7.5s-3.357-7.5-7.5-7.5h-38.235
	v-65.251c93.996-17.43,166.124-99.167,169.954-198.089l19.67-10.57c3.649-1.961,5.018-6.508,3.057-10.157
	c-1.961-3.649-6.51-5.021-10.157-3.057l-12.394,6.659v-63.173l57.814,31.066c0.343,0.185,0.626,0.361,0.856,0.522
	c-0.23,0.161-0.514,0.337-0.856,0.522l-14.58,7.834c-3.649,1.961-5.018,6.508-3.057,10.157c1.96,3.648,6.508,5.018,10.157,3.057
	l14.58-7.834c5.988-3.218,9.423-8.224,9.423-13.736C500.683,179.434,497.248,174.428,491.26,171.21z M241.215,496.999h-38.024
	v-62.393c5.144,0.38,10.323,0.577,15.527,0.577c0.243,0,0.489,0,0.733-0.001c7.35-0.025,14.61-0.447,21.764-1.231V496.999z"/>
<g>
</g>
<g>
</g>
<g>
</g>
<g>
</g>
<g>
</g>
<g>
</g>
<g>
</g>
<g>
</g>
<g>
</g>
<g>
</g>
<g>
</g>
<g>
</g>
<g>
</g>
<g>
</g>
<g>
</g>
</svg>
