<?xml version="1.0" encoding="iso-8859-1"?>
<!-- Generator: Adobe Illustrator 19.0.0, SVG Export Plug-In . SVG Version: 6.00 Build 0)  -->
<svg version="1.1" id="Capa_1" xmlns="http://www.w3.org/2000/svg" xmlns:xlink="http://www.w3.org/1999/xlink" x="0px" y="0px"
	 viewBox="0 0 511.999 511.999" style="enable-background:new 0 0 511.999 511.999;" xml:space="preserve">
<path style="fill:#D0EF6F;" d="M256.814,122.414v25.115h63.672c33.175,0,60.319-27.144,60.319-60.319V67.013
	c0-2.716-2.202-4.918-4.918-4.918h-58.754C283.957,62.096,256.814,89.238,256.814,122.414z"/>
<path style="fill:#B5EF14;" d="M337.133,62.096h-20.001c-33.175,0-60.319,27.144-60.319,60.319v25.115h20.001v-25.115
	C276.815,89.238,303.958,62.096,337.133,62.096z"/>
<path style="fill:#D0EF6F;" d="M256.814,108.595v38.934h-98.707c-51.43,0-93.509-42.08-93.509-93.509V20.229
	c0-2.841,2.303-5.143,5.143-5.143h93.564C214.735,15.086,256.814,57.164,256.814,108.595z"/>
<path style="fill:#B5EF14;" d="M84.599,54.019v-33.79c0-2.841,2.303-5.144,5.143-5.144H69.741c-2.841,0-5.143,2.303-5.143,5.144
	v33.79c0,51.43,42.079,93.51,93.509,93.51h20.001C126.678,147.529,84.599,105.449,84.599,54.019z"/>
<path style="fill:#CC905E;" d="M256.344,352.634c-52.35,0-97.776,29.137-120.461,71.823c-6.676-1.698-13.677-2.604-20.892-2.604
	c-44.351,0-80.587,34.135-83.078,77.157h448.864c-2.491-43.023-38.727-77.157-83.078-77.157c-7.215,0-14.217,0.906-20.892,2.604
	C354.12,381.771,308.694,352.634,256.344,352.634z"/>
<g>
	<path style="fill:#BA7958;" d="M126.379,422.624c-3.724-0.502-7.524-0.77-11.389-0.77c-44.351,0-80.587,34.135-83.078,77.157
		h22.723C56.91,459.719,87.336,427.857,126.379,422.624z"/>
	<path style="fill:#BA7958;" d="M135.881,424.458c-0.032,0-0.064,0,0.001,0H135.881z"/>
	<path style="fill:#BA7958;" d="M165.14,413.472c22.289-33.681,59.589-56.854,102.565-60.358c-0.976-0.08-1.955-0.149-2.936-0.21
		c-0.947-0.057-1.895-0.111-2.847-0.149c-0.52-0.022-1.042-0.035-1.563-0.051c-1.331-0.038-2.664-0.069-4.004-0.07
		c-0.003,0-0.006,0-0.01,0c-0.001,0-0.002,0-0.003,0c-52.348,0.001-97.773,29.138-120.458,71.822c3.004,0,7.863,1.059,10.786,1.365
		C154.006,426.591,161.069,419.624,165.14,413.472z"/>
</g>
<path d="M7.5,507.876c6.186,0,224.5,0,230.71,0c4.143,0,7.5-3.358,7.5-7.5s-3.357-7.5-7.5-7.5c-14.904,0-191.872,0-198.285,0
	c5.896-36.144,37.304-63.42,74.721-63.42c6.437,0,12.835,0.81,19.016,2.408c3.373,0.872,6.907-0.696,8.524-3.786
	c22.245-42.545,65.857-68.973,113.815-68.973s91.569,26.43,113.815,68.973c1.615,3.09,5.145,4.66,8.524,3.786
	c43.461-11.238,86.647,17.545,93.736,61.011c-8.528,0-189.271,0-198.862,0c-4.143,0-7.5,3.358-7.5,7.5s3.357,7.5,7.5,7.5
	c2.042,0,228.918,0,231.286,0c4.143,0,7.5-3.358,7.5-7.5s-3.357-7.5-7.5-7.5h-17.284c-6.907-50.949-55.349-86.61-106.888-76.821
	c-24.258-42.227-67.884-69.05-116.356-71.714V155.027h56.17c19.301,0,37.776-8.344,50.691-22.892
	c2.749-3.098,2.467-7.838-0.631-10.589c-3.097-2.75-7.839-2.468-10.589,0.63c-10.069,11.344-24.456,17.85-39.472,17.85h-56.171
	v-17.614c0-29.124,23.693-52.817,52.817-52.817h56.171v17.614c0,1.309-0.064,2.726-0.195,4.333
	c-0.339,4.128,2.733,7.749,6.862,8.087c4.116,0.344,7.749-2.734,8.087-6.863c0.166-2.018,0.246-3.836,0.246-5.557V62.096
	c0-4.142-3.357-7.5-7.5-7.5h-63.672c-22.764,0-42.93,11.286-55.236,28.544c-10.067-45.156-50.446-79.016-98.59-79.016H64.254
	c-4.143,0-7.5,3.358-7.5,7.5v38.933c0,55.697,45.313,101.01,101.009,101.01h91.208v92.79
	c-23.953-20.547-54.288-19.468-55.822-19.396c-4.13,0.188-7.318,3.681-7.142,7.812c0.176,4.131,3.696,7.339,7.803,7.174
	c1.474-0.058,35.772-1.074,55.161,26.634v77.712c-48.848,2.366-92.883,29.262-117.297,71.761c-5.594-1.063-11.3-1.6-17.027-1.6
	c-45.66,0-83.826,33.914-89.86,78.421H7.5c-4.143,0-7.5,3.358-7.5,7.5S3.357,507.876,7.5,507.876z M71.754,50.558V19.125h91.207
	c47.425,0,86.008,38.583,86.008,86.008c0,11.683,0,19.724,0,31.434h-91.207C110.338,136.567,71.754,97.984,71.754,50.558z"/>
<g>
</g>
<g>
</g>
<g>
</g>
<g>
</g>
<g>
</g>
<g>
</g>
<g>
</g>
<g>
</g>
<g>
</g>
<g>
</g>
<g>
</g>
<g>
</g>
<g>
</g>
<g>
</g>
<g>
</g>
</svg>
