<?xml version="1.0" encoding="iso-8859-1"?>
<!-- Generator: Adobe Illustrator 19.0.0, SVG Export Plug-In . SVG Version: 6.00 Build 0)  -->
<svg version="1.1" id="Capa_1" xmlns="http://www.w3.org/2000/svg" xmlns:xlink="http://www.w3.org/1999/xlink" x="0px" y="0px"
	 viewBox="0 0 512 512" style="enable-background:new 0 0 512 512;" xml:space="preserve">
<circle style="fill:#EEEEEC;" cx="256" cy="372.58" r="131.92"/>
<path style="fill:#D4D3D3;" d="M174.078,372.578c0-64.31,46.02-117.862,106.922-129.546c-8.096-1.553-16.451-2.376-25-2.376
	c-72.859,0-131.922,59.064-131.922,131.922S183.141,504.5,256,504.5c8.549,0,16.904-0.823,25-2.376
	C220.098,490.44,174.078,436.887,174.078,372.578z"/>
<path style="fill:#117D66;" d="M135.41,277.899l34.821-34.619l37.977,38.199l-34.821,34.619c-3.344,3.325-8.75,3.309-12.075-0.035
	l-25.938-26.089C132.05,286.63,132.066,281.224,135.41,277.899z"/>
<path style="fill:#27AF92;" d="M333.953,198.729c29.592,25.625,35.454,106.272-77.953,106.272s-107.544-80.647-77.953-106.272
	H333.953z"/>
<path style="fill:#1F967E;" d="M208.047,198.729h-30C148.456,224.354,142.593,305.001,256,305.001c5.254,0,10.249-0.175,15-0.508
	C173.19,297.646,179.826,223.167,208.047,198.729z"/>
<circle style="fill:#EEEEEC;" cx="256" cy="173.65" r="81.87"/>
<path style="fill:#D4D3D3;" d="M194.13,173.654c0-41.828,31.375-76.305,71.87-81.241c-3.28-0.4-6.612-0.63-10-0.63
	c-45.216,0-81.87,36.655-81.87,81.87s36.655,81.87,81.87,81.87c3.388,0,6.72-0.23,10-0.63
	C225.505,249.959,194.13,215.482,194.13,173.654z"/>
<g>
	<circle style="fill:#E95552;" cx="256" cy="342.29" r="15.14"/>
	<circle style="fill:#E95552;" cx="256" cy="394.24" r="15.14"/>
	<circle style="fill:#E95552;" cx="256" cy="446.19" r="15.14"/>
	<circle style="fill:#E95552;" cx="256" cy="173.65" r="17.46"/>
	<polygon style="fill:#E95552;" points="253.922,39.359 192.538,57.742 197.592,91.788 256,107.984 310.252,91.788 315.305,57.742 	
		"/>
</g>
<polygon style="fill:#D34D49;" points="270.447,103.671 227.592,91.788 221.257,49.141 192.538,57.742 197.568,91.627 
	197.592,91.788 236.531,102.585 256,107.984 "/>
<g>
	<rect x="153.54" y="91.78" style="fill:#424342;" width="204.92" height="32.396"/>
	<polygon style="fill:#424342;" points="322.773,7.5 315.305,57.742 192.538,57.742 185.071,7.5 	"/>
</g>
<polygon style="fill:#3A3B3A;" points="222.534,57.742 215.071,7.5 185.071,7.5 192.538,57.742 "/>
<path d="M256,319.653c-12.482,0-22.638,10.155-22.638,22.638s10.155,22.637,22.638,22.637c12.482,0,22.638-10.155,22.638-22.637
	S268.482,319.653,256,319.653z M256,349.928c-4.211,0-7.638-3.426-7.638-7.637s3.426-7.638,7.638-7.638
	c4.211,0,7.638,3.426,7.638,7.638C263.638,346.502,260.211,349.928,256,349.928z"/>
<path d="M256,371.6c-12.482,0-22.638,10.155-22.638,22.638s10.155,22.638,22.638,22.638c12.482,0,22.638-10.155,22.638-22.638
	S268.482,371.6,256,371.6z M256,401.875c-4.211,0-7.638-3.426-7.638-7.638s3.426-7.638,7.638-7.638c4.211,0,7.638,3.426,7.638,7.638
	S260.211,401.875,256,401.875z"/>
<path d="M256,423.547c-12.482,0-22.638,10.155-22.638,22.638s10.155,22.637,22.638,22.637c12.482,0,22.638-10.155,22.638-22.637
	S268.482,423.547,256,423.547z M256,453.822c-4.211,0-7.638-3.426-7.638-7.637s3.426-7.638,7.638-7.638
	c4.211,0,7.638,3.426,7.638,7.638C263.638,450.396,260.211,453.822,256,453.822z"/>
<path d="M256,198.613c13.763,0,24.959-11.197,24.959-24.959s-11.196-24.96-24.959-24.96s-24.959,11.197-24.959,24.959
	S242.237,198.613,256,198.613z M256,163.694c5.492,0,9.959,4.468,9.959,9.959s-4.468,9.959-9.959,9.959
	c-5.492,0-9.959-4.468-9.959-9.959S250.508,163.694,256,163.694z"/>
<path d="M283.768,203.071c-3.398-2.37-8.073-1.536-10.442,1.862c-3.456,4.956-10.095,8.035-17.326,8.035
	c-7.232,0-13.873-3.08-17.329-8.037c-2.368-3.398-7.044-4.232-10.441-1.863c-3.398,2.369-4.232,7.043-1.863,10.441
	c6.312,9.054,17.389,14.459,29.633,14.459c12.242,0,23.318-5.404,29.629-14.455C287.999,210.115,287.165,205.44,283.768,203.071z"/>
<circle cx="218.68" cy="154.98" r="10.283"/>
<circle cx="293.32" cy="154.98" r="10.283"/>
<path d="M51.318,290.109c0.723,4.001,4.72,6.768,8.714,6.046l23.345-4.219l42.142,31.458c-5.89,15.611-8.942,32.232-8.942,49.182
	C116.578,449.455,179.122,512,256,512s139.422-62.545,139.422-139.423c0-16.99-3.109-33.618-8.97-49.161l42.17-31.479l23.345,4.219
	c0.451,0.082,0.9,0.121,1.343,0.121c3.558,0,6.716-2.542,7.372-6.167c0.737-4.076-1.97-7.978-6.046-8.714l-9.573-1.73l11.152-8.324
	c3.319-2.478,4.001-7.177,1.524-10.497c-2.478-3.32-7.178-4.001-10.497-1.524l-12.188,9.098l0.562-11.006
	c0.211-4.137-2.971-7.662-7.107-7.873c-4.135-0.215-7.662,2.97-7.873,7.107l-1.197,23.428l-39.201,29.263
	c-7.109-13.958-16.582-26.743-28.143-37.747c4.006-7.224,6.501-15.2,7.326-23.706c1.811-18.667-4.936-38.669-17.006-51.415
	c1.925-7.287,2.956-14.933,2.956-22.816c0-14.854-3.585-29.133-10.453-41.974h23.542c4.142,0,7.5-3.358,7.5-7.5V91.784
	c0-4.142-3.358-7.5-7.5-7.5h-39.511c0,0,11.216-75.497,11.243-75.681C330.856,4.133,327.275,0,322.773,0c0,0-137.481,0-137.702,0
	c-4.53,0-8.085,4.12-7.419,8.603l11.244,75.681h-35.354c-4.142,0-7.5,3.358-7.5,7.5v32.396c0,4.142,3.358,7.5,7.5,7.5h23.541
	c-6.868,12.841-10.453,27.12-10.453,41.974c0,7.889,1.032,15.542,2.961,22.833c-11.445,12.171-19.524,32.586-16.775,53.532
	l-22.692,22.561c-3.038,3.021-4.718,7.043-4.731,11.327c-0.012,4.284,1.644,8.316,4.665,11.354l6.084,6.12
	c-1.552,2.606-3.028,5.249-4.401,7.938l-39.178-29.246l-1.197-23.428c-0.211-4.137-3.729-7.323-7.873-7.107
	c-4.137,0.211-7.319,3.736-7.107,7.873l0.562,11.006l-12.187-9.098c-3.319-2.477-8.019-1.795-10.497,1.524
	s-1.795,8.019,1.524,10.497l11.151,8.324l-9.573,1.73C53.289,282.132,50.582,286.033,51.318,290.109z M314.076,15l-5.238,35.242
	H199.006L193.768,15H314.076z M201.234,65.242H306.61l-2.827,19.042H204.06L201.234,65.242z M161.042,99.284h189.917v17.396H161.042
	V99.284z M317.39,131.68c8.505,12.387,12.981,26.822,12.981,41.974c0,37.133-27.355,67.994-62.971,73.496
	c-7.531,1.163-15.266,1.174-22.798,0c-35.616-5.502-62.971-36.364-62.971-73.496c0-15.153,4.476-29.587,12.981-41.974H317.39z
	 M175.691,212.916c12.758,26.218,37.449,44.449,66.2,48.991c9.202,1.454,18.898,1.478,28.218,0
	c28.772-4.545,53.477-22.799,66.227-49.047c6.141,9.406,9.297,21.792,8.154,33.576c-0.626,6.452-2.706,14.412-8.144,22.141
	c-0.009,0.013-0.02,0.024-0.03,0.038c-4.596,6.531-10.879,11.762-17.781,15.714c-3.82,2.187-4.898,7.446-2.291,10.972
	c2.231,3.017,6.416,3.955,9.75,2.043c6.338-3.622,12.241-8.139,17.219-13.489c23.738,23.337,37.208,55.252,37.208,88.723
	C380.422,441.184,324.607,497,256,497s-124.422-55.816-124.422-124.423c0-21.196,5.34-41.82,15.514-60.181
	c0,0,8.901,8.953,8.902,8.954c6.142,6.178,16.504,6.208,22.682,0.066c0,0,18.699-18.59,18.721-18.581
	C215.914,310.3,236.171,312.5,256,312.5c14.788,0,28.323-1.353,40.23-4.021c4.042-0.906,6.584-4.917,5.676-8.968
	c-0.905-4.042-4.915-6.588-8.958-5.679c-10.863,2.434-23.294,3.667-36.948,3.667c-18.48,0-37.667-1.997-54.802-9.346
	c-15.562-6.675-29.228-19.275-32.849-36.338C165.375,237.804,169.01,223.26,175.691,212.916z M140.699,283.218l16.694-16.598
	c4.152,9.553,11.569,19.805,24.604,28.27c0.22,0.144,1.055,0.691,1.261,0.819l-15.158,15.07c-0.393,0.389-1.075,0.392-1.468-0.005
	c0,0-25.938-26.088-25.938-26.089C140.291,284.281,140.294,283.619,140.699,283.218z"/>
<g>
</g>
<g>
</g>
<g>
</g>
<g>
</g>
<g>
</g>
<g>
</g>
<g>
</g>
<g>
</g>
<g>
</g>
<g>
</g>
<g>
</g>
<g>
</g>
<g>
</g>
<g>
</g>
<g>
</g>
</svg>
